<svg width="16" height="16" xmlns="http://www.w3.org/2000/svg" stroke="null" style="vector-effect: non-scaling-stroke;"
     preserveAspectRatio="xMidYMid meet" version="1.0">
    <g stroke="null">
        <title stroke="null">Layer 1</title>
        <g stroke="null" id="svg_1" fill="#000000" transform="translate(0 512) scale(0.1 -0.1)">
            <path stroke="null" id="svg_2"
                  d="m22.23514,5118.62485c-8.74855,-1.58218 -16.5664,-8.03501 -19.76179,-16.31821c-1.95446,-5.05678 -1.89242,-2.29572 -1.79935,-63.84577l0.09307,-55.9969l0.71353,-2.48186c2.63697,-9.27594 9.80334,-16.41128 18.98621,-18.83109l2.63697,-0.71353l56.92759,0l56.92759,0l2.63697,0.71353c9.18287,2.41981 16.34923,9.55515 18.98621,18.83109l0.71353,2.48186l0.09307,55.9969c0.06205,49.0477 0,56.30713 -0.4033,58.72694c-1.89242,10.95119 -10.45482,19.54462 -21.40602,21.46806c-3.90892,0.68251 -111.55947,0.65149 -115.3443,-0.03102zm70.82599,-30.37172c3.97097,-0.55842 10.57892,-2.20265 13.65021,-3.35051l2.01651,-0.77558l0.09307,-12.71952l0.06205,-12.75054l-2.60595,1.24093c-3.56767,1.67525 -9.40003,3.56767 -13.77431,4.49837c-4.52939,0.96172 -11.54063,1.334 -14.05352,0.74456c-4.59144,-1.05479 -6.57692,-4.09506 -4.96371,-7.63171c1.11684,-2.45083 3.8779,-4.00199 13.06077,-7.25943c2.97823,-1.05479 6.76306,-2.48186 8.37627,-3.16437c10.14459,-4.2812 15.69775,-10.05152 18.02449,-18.707c0.99274,-3.62972 0.99274,-11.26143 0.03102,-15.17035c-2.85414,-11.47859 -11.54063,-19.01723 -25.25289,-21.93341c-3.75381,-0.8066 -14.33272,-1.14786 -18.76904,-0.62046c-6.48385,0.8066 -12.25417,2.23367 -17.99346,4.43632l-3.19539,1.20991l0,12.87463c0,7.07329 0.06205,12.84361 0.12409,12.84361c0.06205,0 1.83037,-0.83763 3.93995,-1.83037c6.70101,-3.19539 13.55714,-5.36702 19.76179,-6.26669c3.8779,-0.52739 9.12082,-0.24819 11.16836,0.65149c2.88516,1.24093 4.06404,3.25744 3.69176,6.39078c-0.4033,3.56767 -3.38153,5.6152 -14.02249,9.58617c-10.14459,3.78483 -14.95319,6.26669 -18.86211,9.77231c-3.16437,2.82311 -5.6152,6.85613 -6.79408,11.13733c-0.55842,1.95446 -0.65149,3.19539 -0.65149,7.16636c0,4.12609 0.12409,5.24292 0.8066,7.78683c3.10232,11.7578 12.59542,19.54462 26.67996,21.84034c1.58218,0.24819 3.35051,0.52739 3.93995,0.58944c2.23367,0.27921 12.06803,-0.09307 15.51161,-0.58944z"/>
        </g>
    </g>
</svg>